<?xml version="1.0" encoding="UTF-8" standalone="no"?>
<svg
   xmlns:dc="http://purl.org/dc/elements/1.1/"
   xmlns:cc="http://creativecommons.org/ns#"
   xmlns:rdf="http://www.w3.org/1999/02/22-rdf-syntax-ns#"
   xmlns:svg="http://www.w3.org/2000/svg"
   xmlns="http://www.w3.org/2000/svg"
   xmlns:sodipodi="http://sodipodi.sourceforge.net/DTD/sodipodi-0.dtd"
   xmlns:inkscape="http://www.inkscape.org/namespaces/inkscape"
   width="587"
   height="587"
   viewBox="0 0 587.00001 587"
   version="1.1"
   xml:space="preserve"
   style="clip-rule:evenodd;fill-rule:evenodd;stroke-linejoin:round;stroke-miterlimit:1.41420996"
   id="svg2"
   inkscape:version="0.92.2 (5c3e80d, 2017-08-06)"
   sodipodi:docname="logo.svg"
   inkscape:export-filename="C:\Users\hughi\Google Drive\Code Projects\other_web\logo.png"
   inkscape:export-xdpi="18.916256"
   inkscape:export-ydpi="18.916256"><metadata
     id="metadata188"><rdf:RDF><cc:Work
         rdf:about=""><dc:format>image/svg+xml</dc:format><dc:type
           rdf:resource="http://purl.org/dc/dcmitype/StillImage" /><dc:title></dc:title></cc:Work></rdf:RDF></metadata><defs
     id="defs186"><clipPath
       id="_clip1"><rect
         x="58.257999"
         y="20.851999"
         width="491.82501"
         height="566.28998"
         id="rect13" /></clipPath></defs><sodipodi:namedview
     pagecolor="#ffffff"
     bordercolor="#666666"
     borderopacity="1"
     objecttolerance="10"
     gridtolerance="10"
     guidetolerance="10"
     inkscape:pageopacity="0"
     inkscape:pageshadow="2"
     inkscape:window-width="1920"
     inkscape:window-height="1017"
     id="namedview184"
     showgrid="false"
     inkscape:zoom="1.0960736"
     inkscape:cx="157.1069"
     inkscape:cy="323.77501"
     inkscape:window-x="-8"
     inkscape:window-y="-8"
     inkscape:window-maximized="1"
     inkscape:current-layer="layer6"
     fit-margin-top="0"
     fit-margin-left="0"
     fit-margin-right="0"
     fit-margin-bottom="0" /><g
     inkscape:groupmode="layer"
     id="layer7"
     inkscape:label="Connection"
     transform="translate(-20.606883,-11.623888)"
     style="display:inline"><path
       d="m 316.80886,384.966 c -0.82814,0.48537 -1.77756,0.7366 -2.77027,0.76213 l -0.12645,-6.8e-4 c -2.03267,0.0247 -3.95248,-1.04356 -4.97172,-2.78263 L 178.95386,161.14887 c -1.01922,-1.73906 -1.03073,-3.90659 -0.0315,-5.66204 0.9947,-1.76862 2.85446,-2.85858 4.87177,-2.85518 l 257.19639,-1.68008 c 2.02084,-0.0177 3.90631,1.05154 4.92553,2.79062 1.01922,1.73908 1.03798,3.88647 0.0291,5.66346 L 318.86532,382.8595 c -0.47653,0.87375 -1.19995,1.60285 -2.05649,2.10484 z M 193.71013,163.87938 313.83308,368.84523 431.28773,162.33616 Z"
       style="clip-rule:evenodd;display:inline;opacity:1;fill:#33ef9e;fill-opacity:1;fill-rule:nonzero;stroke-width:2.74250364;stroke-linejoin:round;stroke-miterlimit:1.41420996"
       id="path65"
       inkscape:connector-curvature="0" /></g><g
     inkscape:groupmode="layer"
     id="layer6"
     inkscape:label="Logo"
     transform="translate(-20.606883,-11.623888)"
     style="display:inline"><path
       inkscape:connector-curvature="0"
       id="path8-3"
       style="clip-rule:evenodd;display:inline;fill:#242930;fill-rule:nonzero;stroke-width:0.46373758;stroke-linejoin:round;stroke-miterlimit:1.41420996"
       d="M 36.610755,75.988655 143.65712,14.157135 c 1.35231,-0.77302 3.28463,-0.77302 4.63737,0 l 107.04595,61.83152 c 1.35268,0.77309 2.31866,2.3185 2.31866,4.05778 V 203.70983 c 0,1.73905 -0.96598,3.28462 -2.31866,4.05766 l -107.04595,61.83152 c -1.35274,0.77304 -3.28506,0.77304 -4.63737,0 L 36.610755,207.76749 c -1.35223,-0.77304 -2.31866,-2.31861 -2.31866,-4.05766 V 80.046435 c 0,-1.73928 0.77304,-3.09125 2.31866,-4.05778 z" /><path
       inkscape:connector-curvature="0"
       id="path8-3-3"
       style="clip-rule:evenodd;display:inline;fill:#242930;fill-rule:nonzero;stroke-width:0.46373758;stroke-linejoin:round;stroke-miterlimit:1.41420996"
       d="M 209.04443,403.28962 316.0908,341.4581 c 1.35231,-0.77302 3.28463,-0.77302 4.63737,0 l 107.04594,61.83152 c 1.35268,0.77309 2.31866,2.3185 2.31866,4.05778 v 123.6634 c 0,1.73905 -0.96598,3.28462 -2.31866,4.05766 l -107.04594,61.83152 c -1.35274,0.77304 -3.28506,0.77304 -4.63737,0 L 209.04443,535.06846 c -1.35223,-0.77304 -2.31866,-2.31861 -2.31866,-4.05766 V 407.3474 c 0,-1.73928 0.77304,-3.09125 2.31866,-4.05778 z" /><path
       inkscape:connector-curvature="0"
       id="path8-3-4"
       style="clip-rule:evenodd;display:inline;fill:#242930;fill-rule:nonzero;stroke-width:0.46373758;stroke-linejoin:round;stroke-miterlimit:1.41420996"
       d="m 380.56576,74.163957 107.04637,-61.83152 c 1.35231,-0.77302 3.28463,-0.77302 4.63737,0 l 107.04594,61.83152 c 1.35268,0.77309 2.31866,2.3185 2.31866,4.05778 V 201.88515 c 0,1.73905 -0.96598,3.28462 -2.31866,4.05766 L 492.2495,267.77433 c -1.35274,0.77304 -3.28506,0.77304 -4.63737,0 L 380.56576,205.94281 c -1.35223,-0.77304 -2.31866,-2.31861 -2.31866,-4.05766 V 78.221737 c 0,-1.73928 0.77304,-3.09125 2.31866,-4.05778 z" /></g></svg>